{"title":"Geordie Shore S12E06 1080P WEB-DL AAC2 0 H 264","uid":14368639,"size":1677071944,"categoryP":"video","categoryS":"hd___tv_shows","magnet":"?xt=urn:btih:3e30277c188c1a05a03b167a735bb5cb3f3cf382&amp;dn=Geordie+Shore+S12E06+1080P+WEB-DL+AAC2+0+H+264&amp;tr=udp%3A%2F%2Ftracker.leechers-paradise.org%3A6969&amp;tr=udp%3A%2F%2Fzer0day.ch%3A1337&amp;tr=udp%3A%2F%2Fopen.demonii.com%3A1337&amp;tr=udp%3A%2F%2Ftracker.coppersurfer.tk%3A6969&amp;tr=udp%3A%2F%2Fexodus.desync.com%3A6969","seeders":5,"leechers":1,"uploader":"jmanwf","files":1,"time":1461143023,"description":"Description\r\nChloe is buzzin' when a new lad arrives. Marnie goes mental when a girl of Aaron's turns up and it kicks off again when the newbie drops Scott right in it with Chantelle.\r\n\r\n\r\nVideo\r\nID : 2\r\nFormat : AVC\r\nFormat/Info : Advanced Video Codec\r\nFormat profile :   \r\nFormat settings, CABAC : Yes\r\nFormat settings, ReFrames : 4 frames\r\nCodec ID : avc1\r\nCodec ID/Info : Advanced Video Coding\r\nDuration : 42mn 8s\r\nBit rate : 5 177 Kbps\r\nWidth : 1 920 pixels\r\nHeight : 1 080 pixels\r\nDisplay aspect ratio : 16:9\r\nFrame rate mode : Constant\r\nFrame rate : 25.000 fps\r\nColor space : YUV\r\nChroma subsampling : 4:2:0\r\nBit depth : 8 bits\r\nScan type : Progressive\r\nBits/(Pixel*Frame) : 0.100\r\nStream size : 1.52 GiB (98%)\r\nLanguage : English\r\nEncoded date : UTC 2016-04-20 01:49:21\r\nTagged date : UTC 2016-04-20 01:53:01\r\nColor range : Limited\r\nColor primaries : BT.709\r\nTransfer characteristics : BT.709\r\nMatrix coefficients : BT.709\r\n\r\nAudio\r\nID : 1\r\nFormat : AAC\r\nFormat/Info : Advanced Audio Codec\r\nFormat profile : LC\r\nCodec ID : 40\r\nDuration : 42mn 8s\r\nBit rate mode : Variable\r\nBit rate : 126 Kbps\r\nMaximum bit rate : 194 Kbps\r\nChannel(s) : 2 channels\r\nChannel positions : Front: L R\r\nSampling rate : 48.0 KHz\r\nFrame rate : 46.875 fps (1024 spf)\r\nCompression mode : Lossy\r\nStream size : 37.9 MiB (2%)\r\nLanguage : English\r\nDefault : Yes\r\nAlternate group : 1\r\nEncoded date : UTC 2016-04-20 01:49:21\r\nTagged date : UTC 2016-04-20 01:53:01","torrent":{"xt":"urn:btih:3e30277c188c1a05a03b167a735bb5cb3f3cf382","amp;dn":"Geordie+Shore+S12E06+1080P+WEB-DL+AAC2+0+H+264","amp;tr":["udp%3A%2F%2Ftracker.leechers-paradise.org%3A6969","udp%3A%2F%2Fzer0day.ch%3A1337","udp%3A%2F%2Fopen.demonii.com%3A1337","udp%3A%2F%2Ftracker.coppersurfer.tk%3A6969","udp%3A%2F%2Fexodus.desync.com%3A6969"],"infoHash":"3e30277c188c1a05a03b167a735bb5cb3f3cf382","infoHashBuffer":{"type":"Buffer","data":[62,48,39,124,24,140,26,5,160,59,22,122,115,91,181,203,63,60,243,130]},"announce":[],"urlList":[]}}